<svg viewBox="0 0 1024 1024" xmlns="http://www.w3.org/2000/svg" width="64" height="64">
    <path d="M224.85 799.15h615.32c22.66 0.11 40.93 18.57 40.82 41.22-0.11 22.5-18.32 40.71-40.82 40.82H183.83c-22.66 0-41.02-18.36-41.02-41.02V183.83c0.11-22.66 18.57-40.93 41.22-40.82 22.5 0.11 40.71 18.32 40.82 40.82v615.32z"></path>
    <path d="M377.84 299.35c-15.58-16.45-41.54-17.16-57.99-1.58-16.33 15.47-17.17 41.2-1.86 57.69l153.83 164.09c14.98 15.98 39.89 17.37 56.55 3.15l121.42-103.61 158.18 200.38c14.04 17.78 39.83 20.82 57.62 6.78 17.78-14.04 20.82-39.83 6.78-57.62L687.77 334.8c-14.04-17.78-39.83-20.82-57.61-6.78-0.41 0.32-0.82 0.66-1.21 1L504.89 434.87 377.84 299.35z"></path>
</svg>