<?xml version="1.0" standalone="no"?>
<svg class="icon" viewBox="0 0 1024 1024" version="1.1" xmlns="http://www.w3.org/2000/svg">
    <path d="M866.325787 188.459574a119.829787 119.829787 0 0 1 3.355234 166.018724l-3.355234 3.46417-108.544 108.565787a32.680851 32.680851 0 0 1-48.345872-43.901276l2.113362-2.331234 108.565787-108.544a54.468085 54.468085 0 0 0 2.461957-74.425192l-2.461957-2.614468L727.693617 142.270638a54.468085 54.468085 0 0 0-74.403404-2.44017l-2.614468 2.44017L404.153191 388.749617a54.468085 54.468085 0 0 0-2.44017 74.425192l2.44017 2.614468 92.443235 92.421446a32.680851 32.680851 0 0 1-43.87949 48.345873l-2.331234-2.113362-92.443234-92.443234a119.829787 119.829787 0 0 1-3.333447-165.996936l3.333447-3.485958L604.443234 96.059915a119.829787 119.829787 0 0 1 165.975149-3.333447l3.485957 3.333447 92.421447 92.443234z"/>
    <path d="M666.057532 512a119.829787 119.829787 0 0 1 3.333447 165.996936l-3.333447 3.485958-246.500766 246.478978a119.829787 119.829787 0 0 1-165.975149 3.333447l-3.485957-3.333447-92.421447-92.443234a119.829787 119.829787 0 0 1-3.355234-165.975149l3.355234-3.485957 107.193191-107.193192a32.680851 32.680851 0 0 1 48.36766 43.857703l-2.135149 2.331234-107.214979 107.214978a54.468085 54.468085 0 0 0-2.461957 74.425192l2.461957 2.614468L296.306383 881.729362a54.468085 54.468085 0 0 0 74.403404 2.44017l2.614468-2.44017L619.846809 635.250383a54.468085 54.468085 0 0 0 2.44017-74.425192l-2.44017-2.614468-92.443235-92.421446a32.680851 32.680851 0 0 1 43.87949-48.345873l2.331234 2.113362 92.443234 92.443234z"/>
</svg>